
        <svg xmlns="http://www.w3.org/2000/svg" xmlns:xlink="http://www.w3.org/1999/xlink" version="1.1" width="3214.285714285714" 
        height="2545.0573283860467" viewBox="0 0 3214.285714285714 2545.0573283860467">
			
			<g transform="scale(10.714285714285714) translate(10, 10)">
				<defs id="SvgjsDefs1048"><linearGradient id="SvgjsLinearGradient1055"><stop id="SvgjsStop1056" stop-color="#51504f" offset="0"></stop><stop id="SvgjsStop1057" stop-color="#939598" offset="0.5"></stop><stop id="SvgjsStop1058" stop-color="#51504f" offset="1"></stop></linearGradient><linearGradient id="SvgjsLinearGradient1059"><stop id="SvgjsStop1060" stop-color="#147d6c" offset="0"></stop><stop id="SvgjsStop1061" stop-color="#1effff" offset="1"></stop></linearGradient></defs><g id="SvgjsG1049" featureKey="mugSzh-0" transform="matrix(1.6201117318435754,0,0,1.6201117318435754,59.899441340782126,-9.558659372382989)" fill="url(#SvgjsLinearGradient1055)"><path xmlns="http://www.w3.org/2000/svg" d="M11.8,83.6c0,0.2,0,0.2,0,0.2c0,1.4,1,2.2,2.4,2.2c71,0,71,0,71,0c1.2,0,2.4-0.8,2.4-2.2c0-0.2,0-0.2,0-0.2  c0-1.2-1.2-2.4-2.4-2.4c-71,0-71,0-71,0C12.8,81.2,11.8,82.4,11.8,83.6"></path><path xmlns="http://www.w3.org/2000/svg" d="M19.5,36.8c0,0.8,0.8,1.6,1.8,1.6c56.8,0,56.8,0,56.8,0c1,0,1.8-0.8,1.8-1.6c0-0.8-0.8-1.4-1.8-1.4c-56.8,0-56.8,0-56.8,0  C20.3,35.4,19.5,36,19.5,36.8"></path><path xmlns="http://www.w3.org/2000/svg" d="M92.1,88.6c-84.7,0-84.7,0-84.7,0C6,88.6,5,89.8,5,91s0,1.2,0,1.2c0,1.4,1,2.4,2.4,2.4c84.7,0,84.7,0,84.7,0  c1.4,0,2.4-1,2.4-2.4c0-1.2,0-1.2,0-1.2C94.5,89.8,93.5,88.6,92.1,88.6"></path><path xmlns="http://www.w3.org/2000/svg" d="M26.3,48.8c0-0.6,0.6-1.2,1.4-1.2c0.6,0,1.2,0.6,1.2,1.2c0,21.9,0,21.9,0,21.9c0,0.8-0.6,1.2-1.2,1.2  c-0.8,0-1.4-0.4-1.4-1.2 M20.7,74.1c-1.2,0-2.4,1-2.4,2.2s1.2,2.2,2.4,2.2c12.2,0,12.2,0,12.2,0c1.2,0,2.4-1,2.4-2.2  s-1.2-2.2-2.4-2.2c-1,0-1,0-1,0c0-28.7,0-28.7,0-28.7c1,0,1,0,1,0c1.2,0,2.4-1,2.4-2.2S34.1,41,32.9,41c-12.2,0-12.2,0-12.2,0  c-1.2,0-2.4,1-2.4,2.2s1.2,2.2,2.4,2.2c1,0,1,0,1,0c0,28.7,0,28.7,0,28.7H20.7z"></path><path xmlns="http://www.w3.org/2000/svg" d="M51.8,70.7c0,0.8-0.6,1.2-1.2,1.2s-1.2-0.4-1.2-1.2c0-21.9,0-21.9,0-21.9c0-0.6,0.6-1.2,1.2-1.2s1.2,0.6,1.2,1.2 M55.8,45.4  c1.4,0,2.6-1,2.6-2.2S57.2,41,55.8,41c-12,0-12,0-12,0c-1.4,0-2.4,1-2.4,2.2s1,2.2,2.4,2.2c1,0,1,0,1,0c0,28.7,0,28.7,0,28.7  c-1,0-1,0-1,0c-1.4,0-2.4,1-2.4,2.2s1,2.2,2.4,2.2c12,0,12,0,12,0c1.4,0,2.6-1,2.6-2.2s-1.2-2.2-2.6-2.2c-0.8,0-0.8,0-0.8,0  c0-28.7,0-28.7,0-28.7H55.8z"></path><path xmlns="http://www.w3.org/2000/svg" d="M74.6,70.7c0,0.8-0.6,1.2-1.2,1.2c-0.6,0-1.2-0.4-1.2-1.2c0-21.9,0-21.9,0-21.9c0-0.6,0.6-1.2,1.2-1.2  c0.6,0,1.2,0.6,1.2,1.2 M78.8,45.4c1.2,0,2.4-1,2.4-2.2S80,41,78.8,41c-12.2,0-12.2,0-12.2,0c-1.4,0-2.4,1-2.4,2.2s1,2.2,2.4,2.2  c1,0,1,0,1,0c0,28.7,0,28.7,0,28.7c-1,0-1,0-1,0c-1.4,0-2.4,1-2.4,2.2s1,2.2,2.4,2.2c12.2,0,12.2,0,12.2,0c1.2,0,2.4-1,2.4-2.2  s-1.2-2.2-2.4-2.2c-1,0-1,0-1,0c0-28.7,0-28.7,0-28.7H78.8z"></path><path xmlns="http://www.w3.org/2000/svg" d="M11.6,35.8c0.8,1.2,2.4,1.2,3.6,0.6c32.5-22.3,32.5-22.3,32.5-22.3c1.2-0.6,3-0.6,4,0c32.5,22.3,32.5,22.3,32.5,22.3  c1.2,0.6,2.8,0.6,3.6-0.6c0.8-0.8,0.8-0.8,0.8-0.8c0.8-1,0.6-2.4-0.6-3.2C51.8,7.3,51.8,7.3,51.8,7.3c-1-0.8-2-1.4-2-1.4l0,0  c0,0-1,0.6-2,1.4C11.4,31.8,11.4,31.8,11.4,31.8C10.2,32.6,10,34,10.8,35"></path><path xmlns="http://www.w3.org/2000/svg" d="M72.2,33.2c1.2,0,1.4-0.6,0.4-1.4c-20.9-14-20.9-14-20.9-14c-1.2-0.6-3-0.6-4,0c-20.9,14-20.9,14-20.9,14  c-1.2,0.8-0.8,1.4,0.4,1.4"></path></g><g id="SvgjsG1050" featureKey="PPkF4s-0" transform="matrix(2.0926753488936467,0,0,2.0926753488936467,-3.264571927732195,154.33184012759904)" fill="url(#SvgjsLinearGradient1059)"><path d="M16.88 20 l-3.18 0 l0 -6.98 l-4.48 5.2 l-4.48 -5.2 l0 6.98 l-3.18 0 l0 -15.08 l7.66 8.64 l7.66 -8.64 l0 15.08 z M20.04 15.54 l0 -6.5 l3.02 0 l0 6.5 q0 1.18 0.59 1.69 t1.55 0.51 q0.84 0 1.5 -0.65 t0.6 -2.23 l0 -5.82 l3 0 l0 10.96 l-3 0 l0 -0.94 q-0.54 0.56 -1.31 0.87 t-1.63 0.31 q-4.32 0 -4.32 -4.7 z M32.6 18.54 l1.56 -2.08 q0.72 0.5 1.68 0.84 t1.88 0.34 q0.68 0 1.13 -0.28 t0.45 -0.7 t-0.51 -0.59 t-0.99 -0.24 t-0.62 -0.09 q-1.2 -0.2 -2.07 -0.48 t-1.58 -1 t-0.71 -1.98 q0 -2.08 1.51 -2.78 t3.03 -0.7 q1.3 0 2.4 0.38 t2.18 1.2 l-1.56 2.04 q-0.78 -0.46 -1.54 -0.74 t-1.58 -0.28 q-0.5 0 -0.97 0.22 t-0.47 0.6 q0 0.48 0.65 0.68 t1.43 0.3 q1.4 0.24 2.24 0.5 t1.49 0.97 t0.65 2.01 q0 1.72 -1.18 2.65 t-3.34 0.93 q-3 0 -5.16 -1.72 z M44.68 4.880000000000001 l3 0 l0 15.12 l-3 0 l0 -15.12 z M53.34 7.369999999999999 q-0.48 0.47 -1.16 0.47 q-0.7 0 -1.19 -0.47 t-0.49 -1.15 q0 -0.66 0.49 -1.13 t1.19 -0.47 q0.68 0 1.16 0.47 t0.48 1.13 q0 0.68 -0.48 1.15 z M50.68000000000001 9.02 l3 0 l0 10.98 l-3 0 l0 -10.98 z M73.05000000000001 10.04 q1.13 1.24 1.13 3.46 l0 6.5 l-3.02 0 l0 -6.5 q0 -1.18 -0.59 -1.7 t-1.55 -0.52 q-0.8 0 -1.44 0.6 t-0.66 2 l0 6.12 l-3.02 0 l0 -6.5 q0 -1.18 -0.59 -1.7 t-1.53 -0.52 q-0.86 0 -1.49 0.64 t-0.63 2.26 l-0.02 5.82 l-2.98 0 l0 -11 l2.98 0 l0 1 q0.58 -0.52 1.4 -0.86 t1.5 -0.34 q2.32 0 3.54 1.5 q0.62 -0.7 1.54 -1.1 t2 -0.4 q2.3 0 3.43 1.24 z M93.77000000000001 11.22 q-0.51 0.8 -1.33 1.14 q1 0.34 1.72 1.3 t0.72 2.1 q0 2.26 -1.44 3.25 t-3.68 0.99 l-6.32 0 l0 -14.62 l6.08 0 q4.76 0 4.76 4.06 q0 0.98 -0.51 1.78 z M89.58000000000001 11.18 q0.78 0 1.15 -0.48 t0.37 -1.14 q0 -0.58 -0.44 -1.01 t-1.06 -0.43 l-2.98 0 l0 3.06 l2.96 0 z M91.2 16.78 q0.52 -0.48 0.52 -1.18 t-0.52 -1.18 t-1.5 -0.48 l-3.08 0 l0 3.32 l3.14 0 q0.92 0 1.44 -0.48 z M105.68 18.9 q-0.38 0.52 -1.31 0.93 t-2.03 0.41 q-1.7 0 -2.95 -0.76 t-1.91 -2.07 t-0.66 -2.91 t0.66 -2.91 t1.91 -2.07 t2.95 -0.76 q1.14 0 2.01 0.39 t1.33 0.99 l0 -1.14 l2.96 0 l0 11 l-2.96 0 l0 -1.1 z M104.98 12.25 q-0.82 -0.87 -2.2 -0.87 q-1.4 0 -2.21 0.87 t-0.81 2.25 q0 1.34 0.83 2.22 t2.19 0.88 q1.4 0 2.21 -0.83 t0.81 -2.27 q0 -1.38 -0.82 -2.25 z M120.81000000000002 10.02 q1.03 1.22 1.03 3.48 l0 6.5 l-3.06 0 l0 -6.5 q0 -2.22 -2.12 -2.22 q-0.82 0 -1.48 0.65 t-0.62 2.25 l0 5.82 l-2.98 0 l0 -11 l2.98 0 l0 0.98 q0.54 -0.54 1.36 -0.86 t1.58 -0.32 q2.28 0 3.31 1.22 z M127.78000000000002 4.880000000000001 l0 8.8 l3.74 -4.62 l3.66 0 l-4.42 5.12 l4.6 5.82 l-3.62 0 l-2.88 -3.6 l-1.08 1.24 l0 2.36 l-3 0 l0 -15.12 l3 0 z"></path></g><g id="SvgjsG1051" featureKey="uwAHB0-0" transform="matrix(0.7082447950790199,0,0,0.7082447950790199,3.249260557742331,203.11881952261058)" fill="#000000"><path d="M5.98 5.48 q2.46 0 3.86 1.78 l-1.14 0.82 q-1.04 -1.4 -2.76 -1.4 q-1.4 0 -2.27 0.72 t-0.91 1.96 q0 1.08 0.66 1.75 t2.3 1.13 q2.16 0.64 2.88 1.13 t1.09 1.21 t0.37 1.8 q0 1.72 -1.23 2.83 t-3.17 1.15 q-3.06 0 -4.6 -2.14 l1.26 -0.84 q1.06 1.76 3.24 1.78 q1.42 0 2.3 -0.79 t0.88 -1.99 q0 -0.7 -0.25 -1.15 t-0.76 -0.78 t-1.3 -0.6 t-1.85 -0.63 q-1.6 -0.52 -2.37 -1.46 t-0.77 -2.4 q0 -1.72 1.29 -2.8 t3.25 -1.08 z M31.944000000000003 5.84 l0 1.2 l-7.34 0 l0 5.04 l6.88 0 l0 1.2 l-6.88 0 l0 5.52 l7.66 0 l0 1.2 l-8.98 0 l0 -14.16 l8.66 0 z M51.768 5.48 q3.14 0 4.88 2.22 l-1.08 0.9 q-0.6 -0.9 -1.6 -1.41 t-2.2 -0.51 q-2.64 0 -4.3 1.74 t-1.7 4.5 q0 2.74 1.67 4.47 t4.33 1.77 q1.14 0 2.32 -0.57 t1.86 -1.63 l1.08 0.82 q-1.88 2.58 -5.26 2.58 q-3.28 -0.02 -5.27 -2.12 t-2.05 -5.32 q0 -3.26 2.05 -5.33 t5.27 -2.11 z M70.732 5.84 l0 8.5 q0 2.3 0.95 3.54 t2.89 1.28 q3.8 0 3.84 -5.02 l0 -8.3 l1.32 0 l0 8.64 q0 2.78 -1.3 4.32 t-3.86 1.56 q-2.52 0 -3.83 -1.53 t-1.33 -4.25 l0 -8.74 l1.32 0 z M97.79599999999999 12.08 q1.54 0 2.38 -0.69 t0.84 -1.83 t-0.82 -1.82 t-2.44 -0.7 l-2.86 0 l0 5.04 l2.9 0 z M97.396 5.84 q4.9 0 4.94 3.72 q0 3.14 -3.62 3.64 l4.12 6.8 l-1.5 0 l-3.98 -6.72 l-2.46 0 l0 6.72 l-1.32 0 l0 -14.16 l3.82 0 z M124.32 5.84 l0 1.2 l-7.34 0 l0 5.04 l6.88 0 l0 1.2 l-6.88 0 l0 5.52 l7.66 0 l0 1.2 l-8.98 0 l0 -14.16 l8.66 0 z M152.68800000000002 5.84 l4.28 6.72 l4.38 -6.72 l1.48 0 l-5.2 8.06 l0 6.1 l-1.32 0 l0 -6.1 l-5.2 -8.06 l1.58 0 z M175.27200000000002 12.92 q0 2.7 1.66 4.45 t4.34 1.79 q2.7 0 4.34 -1.77 t1.66 -4.47 q0 -2.74 -1.64 -4.47 t-4.38 -1.77 q-2.68 0 -4.32 1.76 t-1.66 4.48 z M181.27200000000002 5.48 q2.16 0 3.82 0.95 t2.57 2.66 t0.93 3.83 q0 3.26 -2.06 5.33 t-5.26 2.11 q-3.22 0 -5.24 -2.09 t-2.08 -5.35 q0.02 -3.26 2.04 -5.32 t5.28 -2.12 z M202.836 5.84 l0 8.5 q0 2.3 0.95 3.54 t2.89 1.28 q3.8 0 3.84 -5.02 l0 -8.3 l1.32 0 l0 8.64 q0 2.78 -1.3 4.32 t-3.86 1.56 q-2.52 0 -3.83 -1.53 t-1.33 -4.25 l0 -8.74 l1.32 0 z M229.9 12.08 q1.54 0 2.38 -0.69 t0.84 -1.83 t-0.82 -1.82 t-2.44 -0.7 l-2.86 0 l0 5.04 l2.9 0 z M229.5 5.84 q4.9 0 4.94 3.72 q0 3.14 -3.62 3.64 l4.12 6.8 l-1.5 0 l-3.98 -6.72 l-2.46 0 l0 6.72 l-1.32 0 l0 -14.16 l3.82 0 z M271.668 5.84 l0 1.2 l-7.16 0 l0 5.04 l6.66 0 l0 1.2 l-6.66 0 l0 6.72 l-1.32 0 l0 -14.16 l8.48 0 z M285.592 5.84 l0 8.5 q0 2.3 0.95 3.54 t2.89 1.28 q3.8 0 3.84 -5.02 l0 -8.3 l1.32 0 l0 8.64 q0 2.78 -1.3 4.32 t-3.86 1.56 q-2.52 0 -3.83 -1.53 t-1.33 -4.25 l0 -8.74 l1.32 0 z M317.736 5.84 l0 1.2 l-4.84 0 l0 12.96 l-1.32 0 l0 -12.96 l-4.84 0 l0 -1.2 l11 0 z M331.2 5.84 l0 8.5 q0 2.3 0.95 3.54 t2.89 1.28 q3.8 0 3.84 -5.02 l0 -8.3 l1.32 0 l0 8.64 q0 2.78 -1.3 4.32 t-3.86 1.56 q-2.52 0 -3.83 -1.53 t-1.33 -4.25 l0 -8.74 l1.32 0 z M358.264 12.08 q1.54 0 2.38 -0.69 t0.84 -1.83 t-0.82 -1.82 t-2.44 -0.7 l-2.86 0 l0 5.04 l2.9 0 z M357.864 5.84 q4.9 0 4.94 3.72 q0 3.14 -3.62 3.64 l4.12 6.8 l-1.5 0 l-3.98 -6.72 l-2.46 0 l0 6.72 l-1.32 0 l0 -14.16 l3.82 0 z M384.788 5.84 l0 1.2 l-7.34 0 l0 5.04 l6.88 0 l0 1.2 l-6.88 0 l0 5.52 l7.66 0 l0 1.2 l-8.98 0 l0 -14.16 l8.66 0 z"></path></g>
			</g>
		</svg>
	