
        <svg xmlns="http://www.w3.org/2000/svg" xmlns:xlink="http://www.w3.org/1999/xlink" version="1.1" width="3157.8947368421054" 
        height="940.3116461179845" viewBox="0 0 3157.8947368421054 940.3116461179845">
			<rect fill="#ffffff" width="3157.8947368421054" height="940.3116461179845"/>
			<g transform="scale(7.894736842105263) translate(10, 10)">
				<defs id="SvgjsDefs1108"><linearGradient id="SvgjsLinearGradient1117"><stop id="SvgjsStop1118" stop-color="#51504f" offset="0"></stop><stop id="SvgjsStop1119" stop-color="#939598" offset="0.5"></stop><stop id="SvgjsStop1120" stop-color="#51504f" offset="1"></stop></linearGradient><linearGradient id="SvgjsLinearGradient1121"><stop id="SvgjsStop1122" stop-color="#147d6c" offset="0"></stop><stop id="SvgjsStop1123" stop-color="#1effff" offset="1"></stop></linearGradient><linearGradient id="SvgjsLinearGradient1124"><stop id="SvgjsStop1125" stop-color="#147d6c" offset="0"></stop><stop id="SvgjsStop1126" stop-color="#1effff" offset="1"></stop></linearGradient></defs><g id="SvgjsG1109" featureKey="LwVBM5-0" transform="matrix(1.1173184357541899,0,0,1.1173184357541899,-5.58659217877095,-6.59217887750551)" fill="url(#SvgjsLinearGradient1117)"><path xmlns="http://www.w3.org/2000/svg" d="M11.8,83.6c0,0.2,0,0.2,0,0.2c0,1.4,1,2.2,2.4,2.2c71,0,71,0,71,0c1.2,0,2.4-0.8,2.4-2.2c0-0.2,0-0.2,0-0.2  c0-1.2-1.2-2.4-2.4-2.4c-71,0-71,0-71,0C12.8,81.2,11.8,82.4,11.8,83.6"></path><path xmlns="http://www.w3.org/2000/svg" d="M19.5,36.8c0,0.8,0.8,1.6,1.8,1.6c56.8,0,56.8,0,56.8,0c1,0,1.8-0.8,1.8-1.6c0-0.8-0.8-1.4-1.8-1.4c-56.8,0-56.8,0-56.8,0  C20.3,35.4,19.5,36,19.5,36.8"></path><path xmlns="http://www.w3.org/2000/svg" d="M92.1,88.6c-84.7,0-84.7,0-84.7,0C6,88.6,5,89.8,5,91s0,1.2,0,1.2c0,1.4,1,2.4,2.4,2.4c84.7,0,84.7,0,84.7,0  c1.4,0,2.4-1,2.4-2.4c0-1.2,0-1.2,0-1.2C94.5,89.8,93.5,88.6,92.1,88.6"></path><path xmlns="http://www.w3.org/2000/svg" d="M26.3,48.8c0-0.6,0.6-1.2,1.4-1.2c0.6,0,1.2,0.6,1.2,1.2c0,21.9,0,21.9,0,21.9c0,0.8-0.6,1.2-1.2,1.2  c-0.8,0-1.4-0.4-1.4-1.2 M20.7,74.1c-1.2,0-2.4,1-2.4,2.2s1.2,2.2,2.4,2.2c12.2,0,12.2,0,12.2,0c1.2,0,2.4-1,2.4-2.2  s-1.2-2.2-2.4-2.2c-1,0-1,0-1,0c0-28.7,0-28.7,0-28.7c1,0,1,0,1,0c1.2,0,2.4-1,2.4-2.2S34.1,41,32.9,41c-12.2,0-12.2,0-12.2,0  c-1.2,0-2.4,1-2.4,2.2s1.2,2.2,2.4,2.2c1,0,1,0,1,0c0,28.7,0,28.7,0,28.7H20.7z"></path><path xmlns="http://www.w3.org/2000/svg" d="M51.8,70.7c0,0.8-0.6,1.2-1.2,1.2s-1.2-0.4-1.2-1.2c0-21.9,0-21.9,0-21.9c0-0.6,0.6-1.2,1.2-1.2s1.2,0.6,1.2,1.2 M55.8,45.4  c1.4,0,2.6-1,2.6-2.2S57.2,41,55.8,41c-12,0-12,0-12,0c-1.4,0-2.4,1-2.4,2.2s1,2.2,2.4,2.2c1,0,1,0,1,0c0,28.7,0,28.7,0,28.7  c-1,0-1,0-1,0c-1.4,0-2.4,1-2.4,2.2s1,2.2,2.4,2.2c12,0,12,0,12,0c1.4,0,2.6-1,2.6-2.2s-1.2-2.2-2.6-2.2c-0.8,0-0.8,0-0.8,0  c0-28.7,0-28.7,0-28.7H55.8z"></path><path xmlns="http://www.w3.org/2000/svg" d="M74.6,70.7c0,0.8-0.6,1.2-1.2,1.2c-0.6,0-1.2-0.4-1.2-1.2c0-21.9,0-21.9,0-21.9c0-0.6,0.6-1.2,1.2-1.2  c0.6,0,1.2,0.6,1.2,1.2 M78.8,45.4c1.2,0,2.4-1,2.4-2.2S80,41,78.8,41c-12.2,0-12.2,0-12.2,0c-1.4,0-2.4,1-2.4,2.2s1,2.2,2.4,2.2  c1,0,1,0,1,0c0,28.7,0,28.7,0,28.7c-1,0-1,0-1,0c-1.4,0-2.4,1-2.4,2.2s1,2.2,2.4,2.2c12.2,0,12.2,0,12.2,0c1.2,0,2.4-1,2.4-2.2  s-1.2-2.2-2.4-2.2c-1,0-1,0-1,0c0-28.7,0-28.7,0-28.7H78.8z"></path><path xmlns="http://www.w3.org/2000/svg" d="M11.6,35.8c0.8,1.2,2.4,1.2,3.6,0.6c32.5-22.3,32.5-22.3,32.5-22.3c1.2-0.6,3-0.6,4,0c32.5,22.3,32.5,22.3,32.5,22.3  c1.2,0.6,2.8,0.6,3.6-0.6c0.8-0.8,0.8-0.8,0.8-0.8c0.8-1,0.6-2.4-0.6-3.2C51.8,7.3,51.8,7.3,51.8,7.3c-1-0.8-2-1.4-2-1.4l0,0  c0,0-1,0.6-2,1.4C11.4,31.8,11.4,31.8,11.4,31.8C10.2,32.6,10,34,10.8,35"></path><path xmlns="http://www.w3.org/2000/svg" d="M72.2,33.2c1.2,0,1.4-0.6,0.4-1.4c-20.9-14-20.9-14-20.9-14c-1.2-0.6-3-0.6-4,0c-20.9,14-20.9,14-20.9,14  c-1.2,0.8-0.8,1.4,0.4,1.4"></path></g><g id="SvgjsG1110" featureKey="textGroupContainer" transform="matrix(1,0,0,1,379,6)" fill="url(#SvgjsLinearGradient1121)"><rect xmlns="http://www.w3.org/2000/svg" y="0" height="1" width="1" opacity="0"></rect><rect xmlns="http://www.w3.org/2000/svg" y="0" x="-259" width="3" height="88"></rect></g><g id="SvgjsG1111" featureKey="YhTCwJ-0" transform="matrix(1.780943730876836,0,0,1.780943730876836,134.86553650298072,19.308994389508204)" fill="url(#SvgjsLinearGradient1124)"><path d="M4.26 5.84 l4.8 11.1 l0.04 0 l4.84 -11.1 l2.44 0 l0 14.16 l-1.68 0 l0 -11.88 l-0.04 0 l-5.08 11.88 l-1.02 0 l-5.08 -11.88 l-0.04 0 l0 11.88 l-1.68 0 l0 -14.16 l2.5 0 z M21.18 10.64 l0 5.68 q0 1.08 0.51 1.77 t1.63 0.71 q1.44 0 2.17 -0.96 t0.73 -2.56 l0 -4.64 l1.56 0 l0 7.28 q0.02 0.56 0.08 2.08 l-1.48 0 q-0.02 -0.96 -0.04 -1.54 l-0.04 0 q-0.36 0.78 -1.21 1.28 t-1.93 0.5 q-1.72 -0.02 -2.63 -1.03 t-0.91 -2.71 l0 -5.86 l1.56 0 z M33.6 10.4 q2.24 0.02 3.18 1.7 l-1.3 0.86 q-0.68 -1.12 -1.98 -1.12 q-0.78 0 -1.31 0.36 t-0.53 0.94 q0 0.94 2.34 1.36 q1.68 0.3 2.38 0.98 t0.7 1.82 q0 1.38 -1.02 2.16 t-2.72 0.78 q-1.32 0 -2.17 -0.42 t-1.47 -1.32 l1.24 -0.96 q0.58 0.7 1.14 0.98 t1.26 0.28 q0.9 0 1.48 -0.39 t0.58 -1.05 q0 -0.68 -0.61 -1.02 t-2.03 -0.62 q-1.4 -0.3 -2.03 -0.9 t-0.63 -1.66 q0 -1.18 0.97 -1.96 t2.53 -0.8 z M40.96 4.880000000000001 l0 15.12 l-1.56 0 l0 -15.12 l1.56 0 z M44.98 5.84 q0.46 0 0.8 0.33 t0.34 0.81 q0 0.5 -0.32 0.82 t-0.82 0.32 t-0.82 -0.32 t-0.32 -0.82 q0 -0.48 0.34 -0.81 t0.8 -0.33 z M45.76 10.64 l0 9.36 l-1.56 0 l0 -9.36 l1.56 0 z M53.48 10.4 q2.14 0 2.94 1.78 q0.56 -0.92 1.26 -1.35 t1.72 -0.43 q1.82 0 2.68 0.95 t0.86 2.87 l0 5.78 l-1.56 0 l0 -5.66 q0 -2.46 -2.28 -2.5 q-1.06 0 -1.74 0.79 t-0.68 1.91 l0 5.46 l-1.56 0 l0 -5.42 q0 -1.38 -0.4 -2.06 t-1.42 -0.68 q-1.42 0 -2.15 0.95 t-0.73 2.63 l0 4.58 l-1.56 0 l0 -7.28 q-0.02 -0.7 -0.08 -2.08 l1.48 0 q0.04 1.38 0.04 1.54 l0.04 0 q0.38 -0.8 1.22 -1.29 t1.92 -0.49 z M76.05999999999999 5.84 q2.24 0 3.46 0.91 t1.24 2.57 q0 1.22 -0.67 2.04 t-1.81 1.16 l0 0.04 q1.38 0.12 2.29 1.11 t0.91 2.37 q0 1.88 -1.42 2.91 t-4.04 1.05 l-4.28 0 l0 -14.16 l4.32 0 z M75.82 11.84 q1.54 0 2.34 -0.55 t0.8 -1.75 q0 -2.1 -2.96 -2.14 l-2.58 0 l0 4.44 l2.4 0 z M76.33999999999999 18.44 q1.52 0 2.43 -0.67 t0.91 -1.79 q0 -1.28 -0.9 -1.93 t-2.46 -0.65 l-2.9 0 l0 5.04 l2.92 0 z M87.65999999999998 10.4 q2.04 0 2.97 0.96 t0.95 2.9 l0 4.2 q0 0.6 0.14 1.54 l-1.5 0 q-0.1 -0.18 -0.1 -1.4 l-0.04 0 q-1.06 1.6 -3.08 1.64 q-1.54 0 -2.51 -0.77 t-0.97 -2.01 q0 -1.7 1.4 -2.49 t4.38 -0.79 l0.72 0 l0 -0.26 q0 -2.04 -2.32 -2.08 q-1.68 0 -2.78 1.02 l-0.98 -1.02 q1.44 -1.4 3.72 -1.44 z M85.19999999999999 17.3 q0 1.58 2.06 1.62 q1.22 0 1.99 -0.78 t0.77 -2.28 l0 -0.36 l-1.72 0 q-1.38 0 -2.23 0.44 t-0.87 1.36 z M99.03999999999998 10.4 q1.76 0 2.66 1.02 t0.9 2.72 l0 5.86 l-1.56 0 l0 -5.68 q0 -1.08 -0.5 -1.77 t-1.64 -0.71 q-1.44 0 -2.17 0.95 t-0.73 2.63 l0 4.58 l-1.56 0 l0 -7.28 q0 -0.1 -0.08 -2.08 l1.48 0 q0.04 1.4 0.04 1.54 l0.04 0 q0.38 -0.8 1.23 -1.29 t1.89 -0.49 z M107.11999999999999 4.880000000000001 l0 9.88 l4.26 -4.12 l2.22 0 l-4.52 4.26 l4.98 5.1 l-2.3 0 l-4.64 -4.92 l0 4.92 l-1.56 0 l0 -15.12 l1.56 0 z"></path></g><g id="SvgjsG1112" featureKey="duLK5n-0" transform="matrix(0.4968150503710055,0,0,0.4968150503710055,137.69197448872606,62.35694526814156)" fill="#020202"><path d="M6.3 20.14 c-0.48 0 -0.96 -0.06 -1.44 -0.16 c-1.48 -0.3 -2.94 -1.04 -4.24 -2.16 l1.18 -1.34 c1.06 0.92 2.24 1.54 3.42 1.78 c1 0.22 1.98 0.14 2.76 -0.22 c0.52 -0.24 1.42 -0.84 1.42 -2.06 c0 -1.5 -1.6 -2.04 -3.16 -2.34 c-0.14 -0.02 -2.38 -0.48 -3.28 -1 c-1.2 -0.72 -1.84 -1.8 -1.84 -3.12 c0 -0.74 0.24 -1.44 0.66 -2.06 c0.42 -0.56 1 -1.02 1.68 -1.34 c1 -0.48 2.18 -0.62 3.38 -0.42 c1.3 0.22 2.62 0.84 3.78 1.8 l-1.14 1.38 c-2.06 -1.7 -4.06 -1.74 -5.26 -1.18 c-0.82 0.38 -1.3 1.08 -1.3 1.8 c0 1.36 1.16 1.88 3 2.28 c0.76 0.18 2.34 0.44 3.28 0.98 c1.3 0.72 1.98 1.84 1.98 3.22 c0 0.82 -0.22 1.58 -0.68 2.24 c-0.42 0.6 -1.06 1.06 -1.78 1.42 c-0.76 0.38 -1.54 0.5 -2.42 0.5 z M28.076000000000004 20 l0 -14.24 l9 0 l0 1.72 l-7.2 0 l0 3.34 l6.28 0 l0 1.78 l-6.28 0 l0 5.64 l7.02 0 l0 1.76 l-8.82 0 z M60.11200000000001 18.46 c1.78 0 3.44 -0.82 4.54 -2.26 l1.4 1.04 c-1.42 1.9 -3.6 2.98 -5.94 2.98 c-4.12 0 -7.46 -3.34 -7.46 -7.46 c0 -4.1 3.34 -7.44 7.46 -7.44 c2.36 0 4.54 1.1 5.96 3 l-1.42 1.04 c-1.08 -1.46 -2.74 -2.28 -4.54 -2.28 c-3.16 0 -5.7 2.54 -5.7 5.68 c0 3.16 2.54 5.7 5.7 5.7 z M91.52800000000002 5.76 l1.8 0 l0 9.02 c0 3 -2.44 5.42 -5.44 5.42 c-2.98 0 -5.42 -2.42 -5.42 -5.42 l0 -9.02 l1.78 0 l0 9.02 c0 2.02 1.64 3.68 3.64 3.68 c2.02 0 3.64 -1.66 3.64 -3.68 l0 -9.02 z M116.04400000000001 12.42 l5.5 7.58 l-2.06 0 l-5.44 -7.48 l-2.04 0 l0 7.48 l-1.72 0 l0 -14.24 l4.94 0 c0.9 0 1.74 0.36 2.38 1 s1 1.48 1 2.38 c0 1.58 -1.1 2.9 -2.56 3.28 z M112.004 7.48 l0 3.32 l3.22 0 c0.92 0 1.66 -0.74 1.66 -1.66 s-0.74 -1.66 -1.66 -1.66 l-3.22 0 z M136.8 20 l0 -14.24 l9 0 l0 1.72 l-7.2 0 l0 3.34 l6.28 0 l0 1.78 l-6.28 0 l0 5.64 l7.02 0 l0 1.76 l-8.82 0 z M184.892 20 l0 -7.2 l-5.02 -7.04 l2.2 0 l3.74 5.22 l3.74 -5.22 l2.18 0 l-5.02 7.04 l0 7.2 l-1.82 0 z M213.588 5.32 c4.1 0 7.46 3.34 7.46 7.46 c0 4.1 -3.36 7.42 -7.46 7.42 s-7.44 -3.32 -7.44 -7.42 c0 -4.12 3.34 -7.46 7.44 -7.46 z M213.588 18.44 c3.12 0 5.64 -2.56 5.64 -5.66 c0 -3.12 -2.52 -5.7 -5.64 -5.7 s-5.64 2.58 -5.64 5.7 c0 3.1 2.52 5.66 5.64 5.66 z M246.20399999999998 5.76 l1.8 0 l0 9.02 c0 3 -2.44 5.42 -5.44 5.42 c-2.98 0 -5.42 -2.42 -5.42 -5.42 l0 -9.02 l1.78 0 l0 9.02 c0 2.02 1.64 3.68 3.64 3.68 c2.02 0 3.64 -1.66 3.64 -3.68 l0 -9.02 z M270.71999999999997 12.42 l5.5 7.58 l-2.06 0 l-5.44 -7.48 l-2.04 0 l0 7.48 l-1.72 0 l0 -14.24 l4.94 0 c0.9 0 1.74 0.36 2.38 1 s1 1.48 1 2.38 c0 1.58 -1.1 2.9 -2.56 3.28 z M266.67999999999995 7.48 l0 3.32 l3.22 0 c0.92 0 1.66 -0.74 1.66 -1.66 s-0.74 -1.66 -1.66 -1.66 l-3.22 0 z M310.832 20 l0 -14.24 l9 0 l0 1.74 l-7.2 0 l0 3.34 l3.96 0 l0 1.76 l-3.96 0 l0 7.4 l-1.8 0 z M344.64799999999997 5.76 l1.8 0 l0 9.02 c0 3 -2.44 5.42 -5.44 5.42 c-2.98 0 -5.42 -2.42 -5.42 -5.42 l0 -9.02 l1.78 0 l0 9.02 c0 2.02 1.64 3.68 3.64 3.68 c2.02 0 3.64 -1.66 3.64 -3.68 l0 -9.02 z M366.404 20 l0 -12.48 l-3.76 0 l0 -1.76 l9.32 0 l0 1.76 l-3.76 0 l0 12.48 l-1.8 0 z M397.21999999999997 5.76 l1.8 0 l0 9.02 c0 3 -2.44 5.42 -5.44 5.42 c-2.98 0 -5.42 -2.42 -5.42 -5.42 l0 -9.02 l1.78 0 l0 9.02 c0 2.02 1.64 3.68 3.64 3.68 c2.02 0 3.64 -1.66 3.64 -3.68 l0 -9.02 z M421.736 12.42 l5.5 7.58 l-2.06 0 l-5.44 -7.48 l-2.04 0 l0 7.48 l-1.72 0 l0 -14.24 l4.94 0 c0.9 0 1.74 0.36 2.38 1 s1 1.48 1 2.38 c0 1.58 -1.1 2.9 -2.56 3.28 z M417.69599999999997 7.48 l0 3.32 l3.22 0 c0.92 0 1.66 -0.74 1.66 -1.66 s-0.74 -1.66 -1.66 -1.66 l-3.22 0 z M442.492 20 l0 -14.24 l9 0 l0 1.72 l-7.2 0 l0 3.34 l6.28 0 l0 1.78 l-6.28 0 l0 5.64 l7.02 0 l0 1.76 l-8.82 0 z"></path></g>
			</g>
		</svg>
	